<svg id="Capa_1" data-name="Capa 1" xmlns="http://www.w3.org/2000/svg" viewBox="0 0 35.94 40.65"><defs><style>.cls-1{fill:#fff;}</style></defs><path class="cls-1" d="M18,.35c.61,1,1.15,2,1.68,2.88,1.46,2.54,2.91,5.09,4.39,7.62.26.44.24.67-.24.9-.79.37-1.55.77-2.31,1.19-.4.21-.62.16-.85-.25-.74-1.35-1.52-2.67-2.29-4-.11-.18-.23-.34-.42-.62-.46.78-.87,1.47-1.26,2.16-1.12,1.94-2.22,3.9-3.36,5.83-.26.43-.17.6.25.8,1.21.6,2.43,1.2,3.61,1.87a1.42,1.42,0,0,0,1.57,0c2-1.07,4-2.08,6-3.11.35-.18.72-.33,1.05-.54s.6-.12.82.26c1.55,2.72,3.12,5.42,4.68,8.13s3,5.15,4.46,7.71c.27.47.22.68-.27.94q-8.5,4.34-17,8.73a1,1,0,0,1-1.05,0q-5.09-2.62-10.18-5.23c-.44-.23-.51-.44-.25-.86.46-.73.91-1.48,1.3-2.24.24-.46.47-.47.89-.26,2.74,1.43,5.49,2.83,8.23,4.25a1,1,0,0,0,1.05,0q5.84-3,11.69-6c.43-.22.51-.43.24-.86-1-1.7-2-3.41-3-5.13-.6-1.05-1.17-2.13-1.75-3.19-.78-1.43-.82-1.44-2.2-.69-1,.54-2.06,1.06-3.08,1.59-.66.34-1.34.65-2,1a1,1,0,0,1-1.05,0C16.15,22.58,15,22,13.78,21.36c-.72-.38-1.44-.76-2.15-1.18-.36-.21-.6-.18-.8.2-.62,1.16-1.24,2.33-1.9,3.47-1.28,2.21-2.58,4.4-3.88,6.61-.5.86-1,1.73-1.49,2.61-.21.39-.44.43-.8.23C2,32.89,1.23,32.48.45,32.12c-.5-.23-.56-.46-.28-.94,1.58-2.69,3.14-5.41,4.7-8.12L17.58,1C17.68.82,17.8.65,18,.35Z" transform="translate(0 -0.35)"/></svg>